<?xml version="1.0" standalone="no"?>
<!DOCTYPE svg PUBLIC "-//W3C//DTD SVG 20010904//EN"
 "http://www.w3.org/TR/2001/REC-SVG-20010904/DTD/svg10.dtd">
<svg version="1.0" xmlns="http://www.w3.org/2000/svg"
 width="392.000000pt" height="392.000000pt" viewBox="0 0 392.000000 392.000000"
 preserveAspectRatio="xMidYMid meet">
<metadata>
Created by potrace 1.14, written by Peter Selinger 2001-2017
</metadata>
<g transform="translate(0.000000,392.000000) scale(0.100000,-0.100000)"
fill="#000000" stroke="none">
<path d="M2710 3588 c-47 -4 -99 -15 -117 -23 -17 -8 -40 -15 -52 -15 -11 0
-40 -8 -63 -19 -96 -42 -124 -53 -143 -57 -11 -2 -21 -8 -23 -14 -2 -5 -12
-10 -22 -10 -10 0 -22 -4 -25 -10 -3 -5 -14 -10 -25 -10 -10 0 -20 -7 -23 -14
-3 -8 -21 -23 -39 -32 -18 -9 -37 -23 -41 -30 -4 -8 -15 -14 -24 -14 -9 0 -31
-11 -49 -25 -37 -28 -52 -25 -88 14 -11 12 -25 21 -32 21 -7 0 -18 8 -23 18
-5 9 -32 26 -59 35 -28 10 -53 24 -55 31 -3 7 -24 18 -48 26 -24 7 -51 19 -59
25 -51 40 -153 72 -295 92 -67 9 -193 8 -242 -3 -29 -7 -53 -10 -53 -7 0 3 -6
1 -12 -5 -7 -5 -38 -15 -68 -21 -30 -7 -65 -21 -77 -33 -13 -12 -26 -19 -29
-16 -10 11 -194 -84 -202 -104 -2 -4 -9 -8 -16 -8 -19 0 -216 -194 -216 -213
0 -9 -7 -17 -15 -17 -8 0 -17 -11 -21 -24 -3 -14 -12 -27 -20 -30 -8 -3 -14
-12 -14 -20 0 -8 -11 -23 -25 -34 -14 -11 -25 -23 -25 -27 0 -4 -18 -43 -40
-87 -48 -94 -71 -158 -72 -201 0 -18 -4 -36 -8 -42 -4 -5 -15 -34 -24 -64 -24
-75 -31 -210 -20 -361 4 -47 7 -106 8 -133 0 -26 5 -47 9 -47 5 0 6 -4 3 -8
-3 -4 0 -28 6 -53 6 -24 12 -54 13 -67 5 -38 27 -126 36 -147 5 -11 11 -29 13
-41 2 -11 16 -38 30 -59 14 -21 26 -44 26 -52 0 -8 7 -21 15 -29 8 -9 15 -24
15 -34 0 -10 5 -22 10 -25 9 -6 27 -39 94 -172 6 -12 21 -28 34 -34 12 -7 22
-17 22 -23 0 -16 82 -123 108 -142 12 -8 22 -21 22 -28 0 -26 380 -358 443
-387 14 -6 31 -23 38 -37 8 -14 30 -32 49 -39 19 -8 47 -27 61 -41 26 -28 83
-62 102 -62 6 0 18 -6 26 -14 9 -7 52 -33 96 -56 44 -23 87 -48 96 -56 8 -8
23 -14 32 -14 9 0 17 -4 17 -10 0 -5 11 -10 24 -10 13 0 34 -8 47 -18 31 -24
119 -74 119 -68 0 2 20 -2 44 -9 61 -18 117 -9 211 35 44 20 109 49 145 65 36
15 90 43 121 61 31 19 60 34 64 34 5 0 23 11 42 26 18 14 33 21 33 17 0 -4 4
-3 8 2 9 12 38 30 77 48 29 14 98 57 122 77 6 5 30 19 53 31 22 12 45 29 50
39 5 10 27 27 48 38 22 11 51 31 64 44 14 13 42 37 63 53 59 48 105 94 105
104 0 5 9 13 20 16 11 3 20 13 20 21 0 8 4 14 10 14 14 0 148 137 155 159 3
10 28 41 55 69 28 28 50 54 50 57 0 4 14 20 30 37 17 16 30 38 30 48 0 9 7 23
15 30 8 7 15 20 15 30 0 9 11 29 24 43 14 15 28 37 31 49 4 13 16 37 26 54 10
17 20 40 22 51 1 11 10 28 19 36 9 9 19 36 23 59 4 24 12 49 18 57 6 7 12 18
13 25 1 6 7 39 13 74 5 34 13 68 18 75 4 6 9 32 10 56 2 25 7 49 12 55 26 34
45 253 31 365 -3 25 -3 63 1 83 3 21 1 42 -4 47 -7 7 -6 15 3 26 10 12 10 15
-3 15 -20 0 -26 17 -19 58 3 22 -1 38 -12 51 -11 12 -15 27 -11 44 4 15 1 34
-9 49 -8 12 -20 46 -27 73 -7 28 -20 62 -31 77 -10 14 -18 33 -18 42 0 9 -5
16 -10 16 -6 0 -18 17 -28 38 -20 43 -27 53 -65 94 -15 16 -25 33 -22 38 3 4
-5 10 -16 13 -11 3 -23 15 -26 27 -3 11 -19 28 -35 36 -16 8 -33 25 -38 38 -5
13 -28 33 -54 46 -25 12 -46 26 -46 31 0 5 -6 9 -14 9 -7 0 -24 8 -37 19 -13
10 -35 22 -49 26 -14 4 -47 18 -75 32 -27 13 -61 24 -75 25 -14 1 -33 8 -42
16 -9 8 -43 16 -75 18 -32 2 -67 5 -78 7 -11 2 -58 0 -105 -5z"/>
</g>
</svg>
